#define rat2_width 165
#define rat2_height 83
static char rat2_bits[] = {
 0x00,0x00,0x00,0x00,0x00,0x00,0x00,0x00,0x00,0x00,0x00,0x00,0x00,0x00,0x00,
 0x00,0x00,0x00,0x00,0x00,0xe0,0x00,0x00,0x00,0x00,0x00,0x00,0x00,0x00,0x00,
 0x00,0x00,0x00,0x00,0x00,0x00,0x00,0x00,0x00,0x00,0x00,0xe0,0x00,0x00,0x00,
 0x00,0x00,0x00,0x00,0x00,0x00,0x00,0x00,0x00,0x00,0x00,0x00,0x00,0x00,0x00,
 0x00,0x00,0xe0,0x00,0x00,0x00,0x00,0x00,0x00,0x00,0x00,0x00,0x00,0x00,0x00,
 0x00,0x00,0x00,0x00,0x00,0x00,0x00,0x00,0xe0,0x00,0x00,0x00,0x00,0x00,0x00,
 0x00,0x00,0x00,0x00,0x00,0x00,0x00,0x00,0x40,0x00,0x00,0x00,0x00,0x00,0xe0,
 0x00,0x00,0x00,0x00,0x00,0x00,0x00,0x00,0x00,0x00,0x00,0x00,0x00,0x00,0x04,
 0x00,0x00,0x00,0x00,0x00,0xe0,0x00,0x00,0x00,0x00,0x00,0x00,0x00,0x00,0x00,
 0x00,0x00,0x00,0x00,0x00,0x01,0x00,0x00,0x00,0x00,0x00,0xe0,0x00,0x00,0x00,
 0x00,0x00,0x00,0x00,0x00,0x00,0x00,0x00,0x00,0x00,0x00,0x00,0x00,0x00,0x00,
 0x00,0x00,0xe0,0x00,0x00,0x00,0x00,0x00,0x00,0x00,0x00,0x00,0x00,0x00,0x00,
 0x00,0x00,0x00,0x00,0x00,0x00,0x00,0x00,0xe0,0x00,0x00,0x00,0x00,0x00,0x00,
 0x00,0x00,0x00,0x00,0x00,0x00,0x00,0x00,0xe0,0x03,0x00,0x00,0x00,0x00,0xe0,
 0x00,0x00,0x00,0x00,0x00,0x00,0x00,0x00,0x00,0x00,0x00,0x00,0x00,0x00,0x38,
 0x02,0x00,0x00,0x00,0x00,0xe0,0x00,0x00,0x00,0x00,0x00,0x00,0x00,0x00,0x00,
 0x00,0x00,0x00,0x00,0x00,0x46,0x05,0x00,0x00,0x00,0x00,0xe0,0x00,0x00,0x00,
 0x00,0x00,0x00,0x00,0x00,0x00,0x00,0x00,0x00,0x00,0x00,0x55,0x0a,0x00,0x00,
 0x00,0x00,0xe0,0x00,0x00,0x00,0x00,0x00,0x00,0x00,0x00,0x00,0x00,0x00,0x00,
 0x00,0x80,0x25,0x15,0x00,0x00,0x00,0x00,0xe0,0x00,0x00,0x00,0x00,0x00,0x00,
 0x00,0x00,0x00,0x00,0x00,0xd8,0x00,0x40,0x92,0x32,0x00,0x00,0x00,0x00,0xe0,
 0x00,0x00,0x00,0x00,0x00,0x00,0x00,0x00,0x00,0x00,0x00,0x02,0x02,0x40,0x49,
 0x48,0x00,0x00,0x00,0x00,0xe0,0x00,0x00,0x00,0x00,0x00,0x00,0x00,0x00,0x00,
 0x00,0x00,0x01,0x0c,0xc0,0x54,0xad,0x00,0x00,0x00,0x00,0xe0,0x00,0x00,0x00,
 0x00,0x00,0x00,0x00,0x00,0x00,0x00,0x80,0xf8,0x10,0x80,0x22,0xa5,0x00,0x00,
 0x00,0x00,0xe0,0x00,0x00,0x00,0x00,0x00,0x00,0x00,0x00,0x00,0x00,0x40,0x8c,
 0x11,0x80,0x95,0x52,0x01,0x00,0x00,0x00,0xe0,0x00,0x00,0x00,0x00,0x00,0x00,
 0x00,0x00,0x00,0x00,0x40,0x06,0x21,0x00,0x4a,0x89,0x02,0x00,0x00,0x00,0xe0,
 0x00,0x00,0x00,0x00,0x00,0x00,0x00,0x00,0x00,0x00,0x40,0x02,0x02,0x00,0xa6,
 0x54,0x02,0x00,0x00,0x00,0xe0,0x00,0x00,0x00,0x00,0x00,0x00,0x00,0x00,0x00,
 0x00,0x40,0x03,0x22,0x00,0x14,0x4a,0x05,0x00,0x00,0x00,0xe0,0x00,0x00,0x00,
 0x00,0x00,0x00,0x00,0x00,0x00,0x00,0xc0,0x12,0x22,0x00,0xd4,0x22,0x0d,0x00,
 0x00,0x00,0xe0,0x00,0x00,0x00,0x00,0x00,0x00,0x00,0x00,0x00,0x00,0xf0,0x03,
 0x11,0x00,0x2e,0x54,0x12,0x04,0x00,0x00,0xe0,0x00,0x00,0x00,0x00,0x00,0x00,
 0x00,0x00,0x00,0x04,0xf8,0x1d,0x11,0x00,0x59,0x25,0x59,0x00,0x00,0x00,0xe0,
 0x00,0x00,0x00,0x00,0x00,0x00,0x00,0x00,0x00,0x04,0xf4,0x81,0x10,0x80,0xb4,
 0x92,0x6a,0x04,0x00,0x00,0xe0,0x00,0x00,0x00,0x00,0x00,0x00,0x00,0x00,0x00,
 0x18,0xf1,0xc0,0x08,0xa0,0x72,0xa8,0x7c,0x00,0x00,0x00,0xe0,0x00,0x00,0x00,
 0x00,0x00,0x00,0x00,0x00,0x00,0xe1,0x30,0x00,0x04,0x50,0x4c,0x85,0x4b,0x42,
 0x00,0x00,0xe0,0x00,0x00,0x00,0x00,0x00,0x00,0x00,0x00,0x00,0x3a,0x00,0x08,
 0x0f,0x0c,0x83,0xd5,0x36,0x00,0x00,0x00,0xe0,0x00,0x00,0x00,0x00,0x00,0x00,
 0x00,0x00,0x00,0xa8,0x02,0x80,0x11,0xa4,0x01,0xd1,0x1a,0x20,0x00,0x00,0xe0,
 0x00,0x00,0x00,0x00,0x00,0x00,0x00,0x00,0x00,0x2c,0x01,0x01,0xa0,0xd2,0x00,
 0x6b,0x8d,0x10,0x00,0x00,0xe0,0x00,0x00,0x00,0x00,0x00,0x00,0x00,0x00,0x00,
 0x38,0x02,0x20,0x40,0x2a,0x00,0xb6,0x42,0x00,0x00,0x00,0xe0,0x00,0x00,0x00,
 0x00,0x00,0x00,0x00,0x00,0x00,0xd0,0x1d,0x80,0x54,0x19,0x00,0xac,0x01,0x00,
 0x00,0x00,0xe0,0x00,0x00,0x00,0x00,0x00,0x00,0x00,0x00,0x00,0x50,0x06,0x02,
 0x58,0x06,0x00,0x78,0x10,0x06,0x00,0x00,0xe0,0x00,0x00,0x00,0x00,0x00,0x00,
 0x00,0x00,0x00,0x00,0x38,0x00,0x26,0x03,0x00,0x00,0x00,0x00,0x00,0x00,0xe0,
 0x00,0x00,0x00,0x00,0x00,0x00,0x00,0x00,0x00,0x08,0x54,0x00,0xd3,0x04,0x00,
 0x00,0x00,0x00,0x00,0x00,0xe0,0x00,0x00,0x00,0x00,0x00,0x00,0x00,0x00,0x00,
 0x00,0x52,0xc4,0x4b,0x04,0x00,0x00,0x00,0x00,0x00,0x00,0xe0,0x00,0x00,0x00,
 0x00,0x00,0x00,0x00,0x00,0x00,0x80,0x19,0x60,0x3c,0x04,0x00,0x00,0x00,0x00,
 0x00,0x00,0xe0,0x00,0x00,0x00,0x00,0x00,0x00,0x00,0x00,0x00,0x80,0xf0,0xff,
 0x0f,0x04,0x00,0x00,0x00,0x00,0x00,0x00,0xe0,0x00,0x00,0x00,0x00,0x00,0x00,
 0x00,0x00,0x00,0x40,0x00,0x1d,0x0b,0x04,0x00,0x00,0x00,0x00,0x00,0x00,0xe0,
 0x00,0x00,0x00,0x00,0x00,0x00,0x00,0x00,0x00,0x20,0x80,0x7f,0x4b,0x04,0x00,
 0x00,0x00,0x00,0x00,0x00,0xe0,0x00,0x00,0x00,0x00,0x00,0x00,0x00,0x00,0x00,
 0xb0,0xff,0xdf,0x10,0x02,0x00,0x00,0x00,0x00,0x00,0x00,0xe0,0x00,0x00,0x00,
 0x00,0x00,0x00,0x00,0x00,0x00,0x60,0xf0,0x7f,0x10,0x02,0x00,0x00,0x00,0x00,
 0x00,0x00,0xe0,0x00,0x00,0x00,0x00,0x00,0x00,0x00,0x1c,0x00,0x00,0xf0,0x3c,
 0x10,0x02,0x00,0x00,0x00,0x00,0x00,0x00,0xe0,0x00,0x00,0x00,0x00,0x20,0x00,
 0x00,0x1c,0x00,0x00,0xd0,0x4f,0x12,0x02,0x00,0x00,0x00,0x00,0x00,0x00,0xe0,
 0x00,0x00,0x00,0x00,0x30,0x00,0x00,0x10,0x00,0x00,0x90,0x9b,0x10,0x06,0x00,
 0x00,0x00,0x00,0x00,0x00,0xe0,0x00,0x00,0x00,0x00,0x28,0x00,0x00,0x34,0x00,
 0x00,0x10,0xb0,0x11,0x07,0x00,0x00,0x00,0x00,0x00,0x00,0xe0,0x00,0x00,0x00,
 0x00,0x2c,0x00,0x00,0x38,0x00,0x00,0x10,0x60,0x12,0x05,0x00,0x00,0x00,0x00,
 0x00,0x00,0xe0,0x00,0x00,0x00,0x00,0x38,0x00,0x00,0x5e,0x00,0x00,0x10,0x80,
 0x1c,0x05,0x00,0x00,0x00,0x00,0x00,0x00,0xe0,0x00,0x00,0x00,0x00,0x32,0x00,
 0x60,0x47,0x00,0x00,0x30,0x80,0x11,0x09,0x00,0x00,0x00,0x00,0x00,0x00,0xe0,
 0x00,0x00,0x00,0x00,0x62,0x6f,0x0d,0x40,0x00,0x00,0x90,0x00,0x86,0x09,0x00,
 0x00,0x00,0x00,0x00,0x00,0xe0,0x00,0x00,0x00,0x00,0x01,0x00,0x00,0x80,0x00,
 0x00,0x10,0x02,0x8c,0x08,0x00,0x00,0x00,0x00,0x00,0x00,0xe0,0x00,0x00,0x00,
 0x00,0x00,0x00,0x00,0x80,0x00,0x00,0x10,0x00,0xd8,0x00,0x00,0x00,0x00,0x00,
 0x00,0x00,0xe0,0x00,0x00,0x00,0x80,0x00,0x00,0x00,0x00,0x01,0x00,0x10,0x20,
 0x60,0x10,0x00,0x00,0x00,0x00,0x00,0x00,0xe0,0x00,0x00,0x00,0x80,0x00,0x1d,
 0x00,0x00,0x01,0x00,0x10,0x80,0x00,0x10,0x00,0x00,0x00,0x00,0x00,0x00,0xe0,
 0x00,0xc0,0x1f,0x80,0x80,0xe1,0x00,0x00,0x02,0x00,0x20,0x42,0xbf,0x20,0x00,
 0x00,0x00,0x00,0x00,0x00,0xe0,0x00,0x38,0x60,0x40,0x60,0x1e,0x01,0x00,0x02,
 0x00,0x30,0x60,0xc0,0x21,0x00,0x00,0x00,0x00,0x00,0x00,0xe0,0x00,0x06,0x80,
 0x00,0x20,0xf2,0x00,0x00,0x02,0x00,0x20,0x10,0x04,0x23,0x00,0x00,0x00,0x00,
 0x00,0x00,0xe0,0x80,0x81,0x02,0x43,0x18,0xc0,0x00,0x00,0x04,0x00,0xa0,0x18,
 0x00,0x24,0x00,0x00,0x00,0x00,0x00,0x00,0xe0,0x80,0xf0,0x0d,0x22,0xe8,0x43,
 0x01,0x00,0x04,0x00,0x20,0x0c,0x00,0x44,0x00,0x00,0x00,0x00,0x00,0x00,0xe0,
 0x40,0x08,0x18,0x24,0x94,0xbf,0x00,0x04,0xdc,0x2b,0x40,0x14,0x21,0x44,0x00,
 0x00,0x00,0x00,0x00,0x00,0xe0,0x40,0x04,0x20,0x16,0x14,0xc2,0x00,0x0a,0x03,
 0xd0,0x42,0x04,0x00,0x8c,0x00,0x00,0x00,0x00,0x00,0x00,0xe0,0x20,0x46,0x64,
 0x14,0x1a,0xb2,0x80,0x11,0x01,0x00,0x86,0x04,0x04,0x80,0x00,0x00,0x00,0x00,
 0x00,0x00,0xe0,0x20,0x02,0x40,0x16,0x14,0x09,0x83,0x92,0x43,0x12,0x88,0x04,
 0x80,0x04,0x01,0x00,0x00,0x00,0x00,0x00,0xe0,0x10,0x02,0x20,0x1c,0xe2,0x08,
 0xa1,0x24,0x1c,0x04,0x08,0x45,0x00,0x04,0x06,0x00,0x00,0x00,0x00,0x00,0xe0,
 0x30,0x20,0x21,0xf4,0x07,0x08,0xba,0x24,0xe1,0x00,0x08,0x0e,0x10,0x06,0x08,
 0x00,0x00,0x00,0x00,0x00,0xe0,0x10,0x06,0x30,0x84,0xfe,0x09,0x26,0x21,0x01,
 0xaf,0x08,0x0c,0x01,0x1a,0x30,0x00,0x00,0x00,0x00,0x00,0xe0,0x20,0x18,0x0c,
 0x02,0xf8,0x19,0x20,0x26,0x01,0x60,0x0f,0x0c,0x00,0xf3,0xc1,0x00,0x00,0x00,
 0x00,0x00,0xe0,0x20,0xe0,0x03,0x02,0x80,0x60,0xd0,0xb7,0x01,0x00,0x08,0x18,
 0x80,0x01,0x0e,0xdd,0x02,0x00,0x00,0x00,0xe0,0x40,0x00,0x00,0x01,0xc0,0x89,
 0x6f,0x57,0x01,0x00,0x08,0x50,0x48,0x00,0xe0,0x00,0x0c,0x00,0x00,0x00,0xe0,
 0xc0,0x00,0x80,0xbf,0x81,0x1e,0x23,0x07,0x00,0x00,0x04,0x20,0x60,0x00,0x00,
 0x0e,0x10,0x00,0x2c,0x00,0xe0,0x80,0x01,0xc0,0xc4,0xef,0xc2,0x2c,0x1e,0x08,
 0x00,0x06,0x20,0x21,0x00,0x00,0x30,0x60,0xe9,0x40,0x01,0xe0,0x00,0x0b,0x79,
 0x02,0x7c,0x71,0xd4,0x07,0x00,0x11,0x02,0x20,0x10,0x00,0x00,0x80,0x49,0x04,
 0x1f,0xaf,0xe5,0x00,0xbe,0x1f,0x01,0xf8,0x93,0x10,0xbe,0x05,0x80,0x01,0x30,
 0x18,0x00,0x00,0x00,0x8a,0xc3,0xa0,0x14,0xe4,0x00,0x20,0x80,0x01,0xe0,0x09,
 0x0d,0x23,0xfe,0x6d,0xc0,0x07,0x08,0x00,0x00,0x00,0x00,0x34,0x00,0x00,0xe0,
 0x00,0x00,0x80,0x41,0xeb,0x07,0xe0,0xf7,0x3f,0x08,0x40,0x00,0x10,0x00,0x00,
 0x00,0x00,0x00,0x00,0x00,0xe0,0x00,0x00,0x80,0xff,0x14,0xbe,0x3e,0x00,0xa0,
 0x01,0x80,0xf9,0x0f,0x19,0x00,0x00,0x00,0x00,0x00,0x00,0xe0,0x00,0x00,0x80,
 0x00,0x00,0x40,0x01,0x00,0xe0,0x8d,0x09,0x77,0x0e,0x19,0x7c,0x04,0x00,0x00,
 0x00,0x00,0xe0,0x00,0x00,0x80,0x00,0x00,0x00,0x00,0xa0,0x7f,0x8c,0x18,0x33,
 0xc6,0xcd,0x37,0x06,0x00,0x00,0x00,0x00,0xe0,0x00,0x00,0x80,0x55,0xff,0xff,
 0xff,0x3f,0xa0,0xe6,0x8c,0xb1,0x35,0x10,0xb8,0x0d,0x00,0x00,0x00,0x00,0xe0,
 0x00,0x00,0x00,0x97,0x00,0x00,0x00,0x00,0x00,0x10,0x5b,0x46,0x00,0x00,0x00,
 0x00,0x00,0x00,0x00,0x00,0xe0,0x00,0x00,0x00,0x00,0x00,0x00,0x00,0x00,0x00,
 0x00,0x00,0x00,0x00,0x00,0x00,0x00,0x00,0x00,0x00,0x00,0xe0,0x00,0x00,0x00,
 0x00,0x00,0x00,0x00,0x00,0x00,0x00,0x00,0x00,0x00,0x00,0x00,0x00,0x00,0x00,
 0x00,0x00,0xe0};

