#define waveform_width 32
#define waveform_height 16
static unsigned char waveform_bits[] = {
  0x00, 0x00, 0x00, 0x00, 0x00, 0x00, 0x00, 0x00, 0x00, 0x40, 0x00, 0x00,
  0x00, 0x40, 0x00, 0x00, 0x00, 0xe2, 0x04, 0x00, 0x00, 0xa2, 0x04, 0x00,
  0x00, 0xa5, 0x0e, 0x00, 0xf8, 0x95, 0xca, 0x0f, 0xf8, 0x94, 0xea, 0x0f,
  0x00, 0x94, 0x3a, 0x00, 0x00, 0x9c, 0x13, 0x00, 0x00, 0x08, 0x01, 0x00,
  0x00, 0x08, 0x01, 0x00, 0x00, 0x00, 0x00, 0x00, 0x00, 0x00, 0x00, 0x00,
  0x00, 0x00, 0x00, 0x00, };

